<?xml version="1.0" encoding="UTF-8" standalone="no"?>
<!-- Created with Inkscape (http://www.inkscape.org/) -->

<svg
   xmlns:dc="http://purl.org/dc/elements/1.1/"
   xmlns:cc="http://creativecommons.org/ns#"
   xmlns:rdf="http://www.w3.org/1999/02/22-rdf-syntax-ns#"
   xmlns:svg="http://www.w3.org/2000/svg"
   xmlns="http://www.w3.org/2000/svg"
   xmlns:xlink="http://www.w3.org/1999/xlink"
   xmlns:sodipodi="http://sodipodi.sourceforge.net/DTD/sodipodi-0.dtd"
   xmlns:inkscape="http://www.inkscape.org/namespaces/inkscape"
   width="128"
   height="128"
   viewBox="0 0 33.866666 33.866668"
   version="1.1"
   id="svg8"
   inkscape:version="0.92.3 (2405546, 2018-03-11)"
   sodipodi:docname="hydra.svg">
  <defs
     id="defs2">
    <linearGradient
       inkscape:collect="always"
       id="linearGradient884">
      <stop
         style="stop-color:#a656dc;stop-opacity:1"
         offset="0"
         id="stop880" />
      <stop
         style="stop-color:#d96ad5;stop-opacity:1"
         offset="1"
         id="stop882" />
    </linearGradient>
    <linearGradient
       inkscape:collect="always"
       xlink:href="#linearGradient884"
       id="linearGradient886"
       x1="29.633333"
       y1="291.70831"
       x2="6.3499999"
       y2="266.30832"
       gradientUnits="userSpaceOnUse"
       gradientTransform="matrix(3.7795276,0,0,3.7795276,0,-994.51963)" />
  </defs>
  <sodipodi:namedview
     id="base"
     pagecolor="#ffffff"
     bordercolor="#666666"
     borderopacity="1.0"
     inkscape:pageopacity="0.0"
     inkscape:pageshadow="2"
     inkscape:zoom="5.59375"
     inkscape:cx="70.617627"
     inkscape:cy="95.916265"
     inkscape:document-units="mm"
     inkscape:current-layer="layer1"
     showgrid="true"
     units="px"
     inkscape:window-width="1920"
     inkscape:window-height="1017"
     inkscape:window-x="0"
     inkscape:window-y="30"
     inkscape:window-maximized="1"
     inkscape:snap-bbox="true"
     inkscape:bbox-nodes="true">
    <inkscape:grid
       type="xygrid"
       id="grid815"
       empspacing="4" />
  </sodipodi:namedview>
  <metadata
     id="metadata5">
    <rdf:RDF>
      <cc:Work
         rdf:about="">
        <dc:format>image/svg+xml</dc:format>
        <dc:type
           rdf:resource="http://purl.org/dc/dcmitype/StillImage" />
        <dc:title />
      </cc:Work>
    </rdf:RDF>
  </metadata>
  <g
     inkscape:label="Layer 1"
     inkscape:groupmode="layer"
     id="layer1"
     transform="translate(0,-263.13332)">
    <path
       style="opacity:1;fill:url(#linearGradient886);fill-opacity:1;fill-rule:nonzero;stroke:none;stroke-width:0.99999994;stroke-opacity:1"
       d="M 80.285156 24 C 77.277752 24 74.857422 26.42033 74.857422 29.427734 L 74.857422 94.570312 C 74.857422 97.577717 77.277752 100 80.285156 100 C 83.292561 100 85.714844 97.577717 85.714844 94.570312 L 85.714844 29.427734 C 85.714844 26.42033 83.292561 24 80.285156 24 z "
       transform="matrix(0.26458333,0,0,0.26458333,0,263.13332)"
       id="rect874" />
    <path
       sodipodi:nodetypes="sssssccssssscss"
       inkscape:connector-curvature="0"
       style="opacity:1;fill:#e0edff;fill-opacity:1;fill-rule:nonzero;stroke:none;stroke-width:0.6333493;stroke-opacity:1"
       d="m 12.624439,269.48332 c -0.795709,0 -1.436298,0.64059 -1.436298,1.4363 v 17.23557 c 0,0.79571 0.640589,1.4363 1.436298,1.4363 0.795709,0 1.436298,-0.64059 1.436298,-1.4363 v -7.18149 h 5.745192 v 7.18149 c 0,0.79571 0.640589,1.4363 1.436298,1.4363 0.795709,0 1.436298,-0.64059 1.436298,-1.4363 v -8.61779 c 0,-0.79571 -0.640589,-1.43629 -1.436298,-1.43629 h -7.18149 v -7.18149 c 0,-0.79571 -0.640589,-1.4363 -1.436298,-1.4363 z"
       id="rect817" />
  </g>
</svg>
