<?xml version="1.0" encoding="UTF-8" standalone="no"?>
<!-- Created with Inkscape (http://www.inkscape.org/) -->

<svg
   xmlns:dc="http://purl.org/dc/elements/1.1/"
   xmlns:cc="http://creativecommons.org/ns#"
   xmlns:rdf="http://www.w3.org/1999/02/22-rdf-syntax-ns#"
   xmlns:svg="http://www.w3.org/2000/svg"
   xmlns="http://www.w3.org/2000/svg"
   xmlns:sodipodi="http://sodipodi.sourceforge.net/DTD/sodipodi-0.dtd"
   xmlns:inkscape="http://www.inkscape.org/namespaces/inkscape"
   width="180"
   height="125.068"
   viewBox="0 0 47.624999 33.090909"
   version="1.1"
   id="svg8"
   inkscape:version="0.92.3 (2405546, 2018-03-11)"
   sodipodi:docname="henry.svg">
  <defs
     id="defs2" />
  <sodipodi:namedview
     id="base"
     pagecolor="#000000"
     bordercolor="#666666"
     borderopacity="1.0"
     inkscape:pageopacity="0"
     inkscape:pageshadow="2"
     inkscape:zoom="4"
     inkscape:cx="84.419136"
     inkscape:cy="64.322474"
     inkscape:document-units="mm"
     inkscape:current-layer="layer1"
     showgrid="false"
     inkscape:snap-bbox="true"
     inkscape:bbox-nodes="true"
     inkscape:bbox-paths="true"
     inkscape:snap-bbox-edge-midpoints="true"
     inkscape:window-width="1342"
     inkscape:window-height="856"
     inkscape:window-x="214"
     inkscape:window-y="93"
     inkscape:window-maximized="0"
     inkscape:snap-global="true"
     units="px"
     inkscape:snap-page="true" />
  <metadata
     id="metadata5">
    <rdf:RDF>
      <cc:Work
         rdf:about="">
        <dc:format>image/svg+xml</dc:format>
        <dc:type
           rdf:resource="http://purl.org/dc/dcmitype/StillImage" />
        <dc:title />
      </cc:Work>
    </rdf:RDF>
  </metadata>
  <g
     inkscape:label="Layer 1"
     inkscape:groupmode="layer"
     id="layer1"
     transform="translate(0,-263.90908)">
    <path
       style="fill:#000f39;fill-opacity:1;stroke:#17c25b;stroke-width:0.39216965;stroke-miterlimit:4;stroke-dasharray:none;stroke-opacity:1"
       d="m 40.527587,279.73806 c -4.257544,5.79424 -4.782495,8.89081 -10.499214,13.40684 4.866863,1.33398 5.700563,3.50302 12.724873,3.65894 1.719655,-4.70391 -0.09789,-11.58254 -2.225659,-17.0658 z"
       id="path922"
       inkscape:connector-curvature="0"
       sodipodi:nodetypes="ccccc" />
    <path
       style="fill:#00071a;fill-opacity:1;stroke:#1155ff;stroke-width:0.39216965;stroke-miterlimit:4;stroke-dasharray:none;stroke-opacity:1"
       d="M 19.172897,266.10384 C 10.506588,266.48562 0.56632292,276.85498 0.28217649,285.82414 11.175051,292.61004 32.849639,288.9622 40.700158,280.17668 37.904994,271.62975 27.742121,265.74784 19.172897,266.10384 Z"
       id="path924"
       inkscape:connector-curvature="0"
       sodipodi:nodetypes="cccc" />
    <path
       style="opacity:1;fill:#17c25b;fill-opacity:1;stroke-width:0.42388222"
       d="m 6.1233574,280.72141 c -0.6862072,0.53129 -1.088419,1.34985 -1.0897006,2.2177 -3.9e-5,1.55195 1.258081,2.81007 2.8100386,2.81003 1.4000851,-0.002 2.5853066,-1.03385 2.7794006,-2.42042 l -0.48053,-0.37679 c 0.004,0.0532 0.01759,0.19316 0.01768,0.24649 -0.07509,1.20817 -1.0953649,2.17637 -2.3035309,2.17636 -1.2081662,1e-5 -2.3734217,-1.11373 -2.3734126,-2.3219 7.844e-4,-0.84136 0.3456424,-1.56645 1.0981846,-2.11006 z"
       id="circle926"
       inkscape:connector-curvature="0"
       sodipodi:nodetypes="cccccccccc" />
    <path
       inkscape:connector-curvature="0"
       style="opacity:0.36500005;fill:#1155ff;fill-opacity:1;stroke-width:0.06027929"
       d="m 7.2166326,281.50013 a 0.66513987,0.66513987 0 0 0 -0.6653608,0.66536 0.66513987,0.66513987 0 0 0 0.6653608,0.66485 0.66513987,0.66513987 0 0 0 0.6653605,-0.66485 0.66513987,0.66513987 0 0 0 -0.6653605,-0.66536 z m -0.83285,1.44204 A 0.39959908,0.39959908 0 0 0 5.9839534,283.342 0.39959908,0.39959908 0 0 0 6.3837826,283.74132 0.39959908,0.39959908 0 0 0 6.783101,283.342 0.39959908,0.39959908 0 0 0 6.3837826,282.94217 Z"
       id="circle930" />
    <path
       sodipodi:nodetypes="ccccc"
       inkscape:connector-curvature="0"
       id="path938"
       d="m 19.250425,283.06519 c 0.06516,1.56484 0.0049,1.94419 -0.165889,3.2677 2.814002,2.64762 3.563206,4.21449 5.15099,6.85355 2.244901,-3.69609 3.687092,-4.48784 5.040015,-8.55955 -2.842184,-1.29656 -5.589067,-2.2607 -10.025116,-1.5617 z"
       style="fill:#000f39;fill-opacity:1;stroke:#17c25b;stroke-width:0.39216965;stroke-linecap:butt;stroke-linejoin:miter;stroke-miterlimit:4;stroke-dasharray:none;stroke-opacity:1" />
    <path
       style="fill:#000f39;fill-opacity:1;stroke:#17c25b;stroke-width:0.39216965;stroke-linecap:butt;stroke-linejoin:miter;stroke-miterlimit:4;stroke-dasharray:none;stroke-opacity:1"
       d="m 22.416322,264.10662 c -5.670409,0.0619 -10.528884,0.81286 -14.5612576,4.64477 -4.6151272,4.41446 -4.7643765,9.96119 -4.7643765,9.96119 h 0.00887 c 4.3719477,-5.19527 11.1575141,-9.23967 16.5954091,-9.47924 6.603137,-0.27431 14.148839,3.15786 18.544345,8.65657 3.575429,0.38723 5.788362,1.32174 9.103795,3.96603 -3.008585,-5.88623 -7.419173,-11.17424 -10.47667,-13.26932 -3.706659,-2.51594 -8.647284,-4.54344 -14.450117,-4.48 z"
       id="path940"
       inkscape:connector-curvature="0"
       sodipodi:nodetypes="scccccccs" />
    <path
       sodipodi:nodetypes="ccccc"
       inkscape:connector-curvature="0"
       id="rect945"
       d="m 5.0263074,280.16095 -0.2303935,0.65849 c 2.028331,0.4239 4.2445952,1.30445 6.3135171,4.01363 l 0.346382,-0.43131 c -1.6507144,-2.73182 -4.0451909,-3.69292 -6.4295056,-4.24081 z"
       style="opacity:1;fill:#1155ff;fill-opacity:1;stroke-width:0.2866627" />
  </g>
</svg>
