<?xml version="1.0" encoding="UTF-8" standalone="no"?>
<!-- Generator: Adobe Illustrator 16.0.0, SVG Export Plug-In . SVG Version: 6.00 Build 0)  -->

<svg
   xmlns:dc="http://purl.org/dc/elements/1.1/"
   xmlns:cc="http://creativecommons.org/ns#"
   xmlns:rdf="http://www.w3.org/1999/02/22-rdf-syntax-ns#"
   xmlns:svg="http://www.w3.org/2000/svg"
   xmlns="http://www.w3.org/2000/svg"
   xmlns:sodipodi="http://sodipodi.sourceforge.net/DTD/sodipodi-0.dtd"
   xmlns:inkscape="http://www.inkscape.org/namespaces/inkscape"
   version="1.1"
   id="Layer_1"
   x="0px"
   y="0px"
   width="600px"
   height="600px"
   viewBox="0 0 600 600"
   enable-background="new 0 0 600 600"
   xml:space="preserve"
   sodipodi:docname="instagram.svg"
   inkscape:version="0.92.3 (2405546, 2018-03-11)"><metadata
   id="metadata9"><rdf:RDF><cc:Work
       rdf:about=""><dc:format>image/svg+xml</dc:format><dc:type
         rdf:resource="http://purl.org/dc/dcmitype/StillImage" /></cc:Work></rdf:RDF></metadata><defs
   id="defs7" /><sodipodi:namedview
   pagecolor="#ffffff"
   bordercolor="#666666"
   borderopacity="1"
   objecttolerance="10"
   gridtolerance="10"
   guidetolerance="10"
   inkscape:pageopacity="0"
   inkscape:pageshadow="2"
   inkscape:window-width="1663"
   inkscape:window-height="1017"
   id="namedview5"
   showgrid="false"
   inkscape:zoom="0.78666667"
   inkscape:cx="226.87523"
   inkscape:cy="422.7491"
   inkscape:window-x="897"
   inkscape:window-y="30"
   inkscape:window-maximized="0"
   inkscape:current-layer="Layer_1" />
<path
   d="M203.357,299.999c0-53.386,43.268-96.674,96.655-96.674s96.678,43.288,96.678,96.674s-43.29,96.674-96.678,96.674  C246.624,396.673,203.357,353.385,203.357,299.999 M151.095,299.999c0,82.244,66.67,148.912,148.918,148.912  c82.249,0,148.918-66.668,148.918-148.912s-66.67-148.912-148.918-148.912C217.764,151.087,151.095,217.755,151.095,299.999   M420.022,145.184c0,19.209,15.579,34.811,34.812,34.811c19.21,0,34.812-15.602,34.812-34.811c0-19.208-15.578-34.784-34.812-34.784  C435.602,110.398,420.022,125.976,420.022,145.184 M182.837,536.052c-28.275-1.289-43.644-5.998-53.856-9.979  c-13.54-5.271-23.191-11.549-33.358-21.691c-10.144-10.145-16.444-19.795-21.691-33.335c-3.982-10.213-8.691-25.579-9.979-53.854  c-1.404-30.569-1.687-39.751-1.687-117.194s0.304-86.602,1.687-117.195c1.289-28.272,6.021-43.615,9.979-53.854  c5.271-13.539,11.549-23.19,21.691-33.357c10.144-10.143,19.795-16.442,33.358-21.69c10.213-3.981,25.581-8.689,53.856-9.979  c30.57-1.404,39.753-1.686,117.176-1.686c77.446,0,86.605,0.304,117.2,1.686c28.273,1.289,43.619,6.021,53.854,9.979  c13.54,5.248,23.192,11.549,33.358,21.69c10.144,10.145,16.422,19.818,21.692,33.357c3.981,10.214,8.69,25.58,9.979,53.854  c1.405,30.595,1.687,39.752,1.687,117.195c0,77.419-0.28,86.602-1.687,117.194c-1.289,28.273-6.021,43.641-9.979,53.854  c-5.271,13.54-11.55,23.19-21.692,33.335c-10.144,10.143-19.818,16.421-33.358,21.691c-10.214,3.979-25.581,8.688-53.854,9.979  c-30.571,1.405-39.754,1.687-117.2,1.687C222.59,537.737,213.407,537.457,182.837,536.052 M180.446,11.756  c-30.875,1.405-51.958,6.302-70.395,13.469c-19.069,7.402-35.232,17.337-51.373,33.451c-16.117,16.116-26.049,32.28-33.452,51.371  c-7.168,18.436-12.064,39.519-13.47,70.392C10.327,211.36,9.999,221.245,9.999,300s0.328,88.64,1.758,119.561  c1.405,30.874,6.302,51.957,13.47,70.393c7.403,19.066,17.312,35.255,33.452,51.371c16.117,16.114,32.28,26.024,51.373,33.45  c18.459,7.168,39.519,12.063,70.395,13.47c30.946,1.405,40.809,1.757,119.565,1.757c78.781,0,88.643-0.327,119.566-1.757  c30.875-1.405,51.958-6.302,70.394-13.47c19.069-7.426,35.233-17.336,51.373-33.45c16.117-16.116,26.027-32.305,33.453-51.371  c7.168-18.436,12.087-39.519,13.47-70.393c1.405-30.943,1.733-40.806,1.733-119.561s-0.328-88.64-1.733-119.562  c-1.406-30.873-6.302-51.957-13.47-70.392c-7.426-19.067-17.336-35.23-33.453-51.371c-16.116-16.114-32.304-26.049-51.35-33.451  c-18.459-7.167-39.542-12.087-70.395-13.469c-30.922-1.405-40.809-1.757-119.564-1.757C221.255,9.999,211.393,10.327,180.446,11.756  "
   id="path2"
   style="fill:#17c25b;fill-opacity:1" />
</svg>